<svg width="26" height="25" viewBox="0 0 26 25" fill="none" xmlns="http://www.w3.org/2000/svg">
<path d="M12.8571 21.0724C10.7573 21.0724 8.77784 20.3501 7.1913 18.9873C5.38189 17.4326 4.34375 15.2007 4.34375 12.8673C4.34375 12.1619 4.43759 11.4621 4.61941 10.785C4.72206 10.4069 5.12382 10.184 5.51386 10.2799C5.90683 10.3787 6.14143 10.7652 6.03879 11.1405C5.8863 11.6992 5.81005 12.2804 5.81005 12.8645C5.81005 14.7973 6.6693 16.6426 8.16786 17.932C9.68695 19.2384 11.6518 19.8366 13.6987 19.6137C16.8747 19.2695 19.473 16.809 19.8748 13.7617C19.995 12.8588 19.9335 11.9672 19.6959 11.1095C19.5903 10.7342 19.8249 10.3476 20.215 10.246C20.605 10.1473 21.0068 10.3702 21.1124 10.7455C21.3997 11.781 21.4701 12.8532 21.3294 13.9367C20.8426 17.6217 17.7047 20.5956 13.863 21.0132C13.5257 21.0499 13.1885 21.0668 12.8571 21.0668V21.0724Z" fill="white"/>
<path d="M13.5186 9.10874C13.4864 9.08617 13.4629 9.04667 13.4629 9.00154C13.4629 8.92255 13.5274 8.86048 13.6037 8.86048C13.6418 8.86048 13.674 8.87459 13.6946 8.89152C13.9409 9.09181 14.1872 9.19055 14.5186 9.19055C14.8705 9.19055 15.0993 9.01 15.0993 8.76457V8.7561C15.0993 8.52196 14.9673 8.38937 14.4219 8.27935C13.8207 8.15522 13.545 7.96621 13.545 7.55433V7.54587C13.545 7.15092 13.9057 6.86035 14.4013 6.86035C14.7444 6.86035 14.9937 6.94216 15.2342 7.10861C15.2635 7.13117 15.2987 7.17067 15.2987 7.22427C15.2987 7.30044 15.2342 7.35968 15.1579 7.35968C15.1257 7.35968 15.0993 7.35122 15.0729 7.33429C14.8529 7.17913 14.6418 7.11425 14.3984 7.11425C14.0582 7.11425 13.8441 7.29479 13.8441 7.52048V7.52894C13.8441 7.76591 13.979 7.8985 14.5538 8.01699C15.1345 8.13829 15.4043 8.34423 15.4043 8.72789V8.73636C15.4043 9.16798 15.0318 9.44726 14.5128 9.44726C14.1315 9.44726 13.8148 9.3316 13.5245 9.10874H13.5186Z" fill="white"/>
<path d="M11.6791 9.43603C10.9459 9.43603 10.3477 8.86336 10.3477 8.15527C10.3477 7.44719 10.943 6.87451 11.6791 6.87451C12.4151 6.87451 13.0105 7.44719 13.0105 8.15527C13.0105 8.86336 12.4151 9.43603 11.6791 9.43603ZM11.6791 7.16508C11.1101 7.16508 10.6468 7.61081 10.6468 8.15809C10.6468 8.70538 11.1101 9.15111 11.6791 9.15111C12.248 9.15111 12.7113 8.70538 12.7113 8.15809C12.7113 7.61081 12.248 7.16508 11.6791 7.16508Z" fill="white"/>
<path d="M9.57713 6.88211C9.49502 6.88211 9.42757 6.94699 9.42757 7.02598V7.90897C9.21643 8.09516 8.94663 8.1939 8.65923 8.1939C8.3865 8.1939 8.12843 8.10081 7.92022 7.93154V7.02316C7.92022 6.94417 7.85277 6.87929 7.77065 6.87929C7.68854 6.87929 7.62402 6.94417 7.62402 7.02316V9.28283C7.62402 9.36182 7.69147 9.4267 7.77065 9.4267C7.84983 9.4267 7.92022 9.36182 7.92022 9.28283V8.28417C8.14016 8.41112 8.3953 8.47883 8.65923 8.47883C8.9349 8.47883 9.19883 8.40548 9.42757 8.26443V9.28001C9.42757 9.359 9.49502 9.42388 9.57713 9.42388C9.65925 9.42388 9.72376 9.359 9.72376 9.28001V7.02034C9.72376 6.94135 9.65631 6.87646 9.57713 6.87646V6.88211Z" fill="white"/>
<path d="M16.8331 8.27098C16.906 8.27098 16.9651 8.21381 16.9651 8.1433C16.9651 8.07279 16.906 8.01562 16.8331 8.01562C16.7603 8.01562 16.7012 8.07279 16.7012 8.1433C16.7012 8.21381 16.7603 8.27098 16.8331 8.27098Z" fill="white"/>
<path d="M16.0049 7.03157C16.0049 6.95258 16.0723 6.8877 16.1515 6.8877H17.1163C17.4155 6.8877 17.6501 6.96951 17.7996 7.11056C17.9081 7.21776 17.9668 7.35035 17.9668 7.51115V7.51961C17.9668 7.84686 17.7586 8.0133 17.5533 8.10075C17.8642 8.19103 18.1134 8.36311 18.1134 8.70728V8.71574C18.1134 9.14736 17.738 9.40126 17.1662 9.40126H16.1515C16.0723 9.40126 16.0049 9.33638 16.0049 9.25739V7.03439V7.03157ZM17.0665 8.00766C17.4213 8.00766 17.6677 7.8525 17.6677 7.55911V7.55064C17.6677 7.30239 17.4624 7.14159 17.0899 7.14159H16.2952V8.00484H17.0665V8.00766ZM17.1721 9.14454C17.568 9.14454 17.8143 8.97528 17.8143 8.696V8.68753C17.8143 8.41389 17.5768 8.25591 17.1193 8.25591H16.2952V9.14172H17.1721V9.14454Z" fill="white"/>
<path d="M12.8712 24.9993C5.77429 24.9993 0 19.4436 0 12.6154C0 5.78713 5.77429 0.231445 12.8712 0.231445C19.9681 0.231445 25.7424 5.78713 25.7424 12.6154C25.7424 19.4436 19.9681 24.9993 12.8712 24.9993ZM12.8712 1.36008C6.41946 1.36008 1.17304 6.40788 1.17304 12.6154C1.17304 18.8228 6.41946 23.8706 12.8712 23.8706C19.3229 23.8706 24.5693 18.8228 24.5693 12.6154C24.5693 6.40788 19.32 1.36008 12.8712 1.36008Z" fill="white"/>
</svg>
