<svg width="27" height="26" viewBox="0 0 27 26" fill="none" xmlns="http://www.w3.org/2000/svg">
<path d="M20.9632 20.4454C20.6848 20.4454 20.4182 20.2915 20.2908 20.035C19.8791 19.1856 19.3045 18.4389 18.5788 17.8147C17.0446 16.495 15.0601 15.8907 12.9926 16.1159C10.706 16.3639 8.60603 17.7548 7.51012 19.7471C7.3176 20.0948 6.87034 20.2288 6.50899 20.0435C6.14763 19.8583 6.00842 19.4279 6.20095 19.0802C7.5427 16.6432 10.0189 15.0043 12.8268 14.6994C15.3178 14.4286 17.711 15.1582 19.5652 16.7515C20.4419 17.504 21.135 18.4075 21.6326 19.4307C21.8044 19.787 21.6444 20.2117 21.2742 20.377C21.1735 20.4226 21.0669 20.4454 20.9632 20.4454Z" fill="white"/>
<path d="M14.2028 9.95056C14.1702 9.92776 14.1465 9.88787 14.1465 9.84228C14.1465 9.7625 14.2116 9.69982 14.2887 9.69982C14.3272 9.69982 14.3597 9.71407 14.3805 9.73116C14.6293 9.93346 14.8781 10.0332 15.2128 10.0332C15.5682 10.0332 15.7992 9.85083 15.7992 9.60295V9.5944C15.7992 9.35791 15.666 9.22399 15.115 9.11287C14.5078 8.9875 14.2294 8.7966 14.2294 8.38061V8.37206C14.2294 7.97316 14.5937 7.67969 15.0943 7.67969C15.4408 7.67969 15.6926 7.76232 15.9355 7.93042C15.9651 7.95322 16.0006 7.99311 16.0006 8.04724C16.0006 8.12417 15.9355 8.18401 15.8585 8.18401C15.8259 8.18401 15.7992 8.17546 15.7726 8.15837C15.5504 8.00166 15.3372 7.93612 15.0913 7.93612C14.7478 7.93612 14.5315 8.11848 14.5315 8.34642V8.35496C14.5315 8.5943 14.6678 8.72822 15.2483 8.84789C15.8348 8.97041 16.1073 9.1784 16.1073 9.56591V9.57445C16.1073 10.0104 15.7311 10.2925 15.2069 10.2925C14.8218 10.2925 14.5019 10.1756 14.2087 9.95056H14.2028Z" fill="white"/>
<path d="M12.3428 10.281C11.6023 10.281 10.998 9.70258 10.998 8.98742C10.998 8.27225 11.5993 7.69385 12.3428 7.69385C13.0862 7.69385 13.6875 8.27225 13.6875 8.98742C13.6875 9.70258 13.0862 10.281 12.3428 10.281ZM12.3428 7.98732C11.7681 7.98732 11.3002 8.43751 11.3002 8.99027C11.3002 9.54302 11.7681 9.99321 12.3428 9.99321C12.9174 9.99321 13.3854 9.54302 13.3854 8.99027C13.3854 8.43751 12.9174 7.98732 12.3428 7.98732Z" fill="white"/>
<path d="M10.2207 7.70101C10.1378 7.70101 10.0696 7.76654 10.0696 7.84632V8.73815C9.85637 8.9262 9.58388 9.02592 9.29361 9.02592C9.01815 9.02592 8.7575 8.9319 8.5472 8.76094V7.84347C8.5472 7.7637 8.47908 7.69816 8.39614 7.69816C8.31321 7.69816 8.24805 7.7637 8.24805 7.84347V10.1257C8.24805 10.2055 8.31617 10.2711 8.39614 10.2711C8.47612 10.2711 8.5472 10.2055 8.5472 10.1257V9.1171C8.76935 9.24532 9.02703 9.3137 9.29361 9.3137C9.57203 9.3137 9.8386 9.23962 10.0696 9.09715V10.1229C10.0696 10.2027 10.1378 10.2682 10.2207 10.2682C10.3036 10.2682 10.3688 10.2027 10.3688 10.1229V7.84063C10.3688 7.76085 10.3007 7.69531 10.2207 7.69531V7.70101Z" fill="white"/>
<path d="M17.5483 9.10458C17.6219 9.10458 17.6816 9.04685 17.6816 8.97563C17.6816 8.90441 17.6219 8.84668 17.5483 8.84668C17.4747 8.84668 17.415 8.90441 17.415 8.97563C17.415 9.04685 17.4747 9.10458 17.5483 9.10458Z" fill="white"/>
<path d="M16.7148 7.85527C16.7148 7.77549 16.783 7.70996 16.8629 7.70996H17.8374C18.1395 7.70996 18.3765 7.79259 18.5275 7.93505C18.6371 8.04333 18.6964 8.17724 18.6964 8.33965V8.3482C18.6964 8.67871 18.4861 8.84682 18.2787 8.93515C18.5927 9.02632 18.8445 9.20013 18.8445 9.54774V9.55629C18.8445 9.99223 18.4653 10.2487 17.8878 10.2487H16.8629C16.783 10.2487 16.7148 10.1831 16.7148 10.1033V7.85812V7.85527ZM17.7871 8.84112C18.1455 8.84112 18.3943 8.68441 18.3943 8.38809V8.37954C18.3943 8.1288 18.1869 7.9664 17.8108 7.9664H17.0081V8.83827H17.7871V8.84112ZM17.8937 9.98938C18.2935 9.98938 18.5424 9.81842 18.5424 9.53634V9.5278C18.5424 9.25142 18.3024 9.09186 17.8404 9.09186H17.0081V9.98653H17.8937V9.98938Z" fill="white"/>
<path d="M13.5468 25.9999C6.37891 25.9999 0.546875 20.3886 0.546875 13.4921C0.546875 6.59562 6.37891 0.984375 13.5468 0.984375C20.7146 0.984375 26.5467 6.59562 26.5467 13.4921C26.5467 20.3886 20.7146 25.9999 13.5468 25.9999ZM13.5468 2.12429C7.03053 2.12429 1.73165 7.22257 1.73165 13.4921C1.73165 19.7617 7.03053 24.8599 13.5468 24.8599C20.063 24.8599 25.3619 19.7617 25.3619 13.4921C25.3619 7.22257 20.06 2.12429 13.5468 2.12429Z" fill="white"/>
</svg>
