<svg width="27" height="25" viewBox="0 0 27 25" fill="none" xmlns="http://www.w3.org/2000/svg">
<path d="M13.7891 9.10874C13.7569 9.08617 13.7334 9.04667 13.7334 9.00154C13.7334 8.92255 13.7979 8.86048 13.8742 8.86048C13.9123 8.86048 13.9445 8.87459 13.9651 8.89152C14.2114 9.09181 14.4578 9.19055 14.7891 9.19055C15.141 9.19055 15.3698 9.01 15.3698 8.76457V8.7561C15.3698 8.52196 15.2378 8.38937 14.6924 8.27935C14.0912 8.15522 13.8155 7.96621 13.8155 7.55433V7.54587C13.8155 7.15092 14.1762 6.86035 14.6718 6.86035C15.0149 6.86035 15.2642 6.94216 15.5047 7.10861C15.534 7.13117 15.5692 7.17067 15.5692 7.22427C15.5692 7.30044 15.5047 7.35968 15.4284 7.35968C15.3962 7.35968 15.3698 7.35122 15.3434 7.33429C15.1235 7.17913 14.9123 7.11425 14.6689 7.11425C14.3287 7.11425 14.1146 7.29479 14.1146 7.52048V7.52894C14.1146 7.76591 14.2495 7.8985 14.8243 8.01699C15.405 8.13829 15.6748 8.34423 15.6748 8.72789V8.73636C15.6748 9.16798 15.3023 9.44726 14.7833 9.44726C14.402 9.44726 14.0853 9.3316 13.795 9.10874H13.7891Z" fill="white"/>
<path d="M11.9486 9.43603C11.2154 9.43603 10.6172 8.86336 10.6172 8.15527C10.6172 7.44719 11.2125 6.87451 11.9486 6.87451C12.6847 6.87451 13.28 7.44719 13.28 8.15527C13.28 8.86336 12.6847 9.43603 11.9486 9.43603ZM11.9486 7.16508C11.3797 7.16508 10.9163 7.61081 10.9163 8.15809C10.9163 8.70538 11.3797 9.15111 11.9486 9.15111C12.5175 9.15111 12.9809 8.70538 12.9809 8.15809C12.9809 7.61081 12.5175 7.16508 11.9486 7.16508Z" fill="white"/>
<path d="M9.84862 6.88211C9.76651 6.88211 9.69906 6.94699 9.69906 7.02598V7.90897C9.48791 8.09516 9.21811 8.1939 8.93072 8.1939C8.65798 8.1939 8.39991 8.10081 8.1917 7.93154V7.02316C8.1917 6.94417 8.12425 6.87929 8.04214 6.87929C7.96002 6.87929 7.89551 6.94417 7.89551 7.02316V9.28283C7.89551 9.36182 7.96296 9.4267 8.04214 9.4267C8.12132 9.4267 8.1917 9.36182 8.1917 9.28283V8.28417C8.41165 8.41112 8.66678 8.47883 8.93072 8.47883C9.20638 8.47883 9.47031 8.40548 9.69906 8.26443V9.28001C9.69906 9.359 9.76651 9.42388 9.84862 9.42388C9.93073 9.42388 9.99525 9.359 9.99525 9.28001V7.02034C9.99525 6.94135 9.9278 6.87646 9.84862 6.87646V6.88211Z" fill="white"/>
<path d="M17.1036 8.27098C17.1765 8.27098 17.2356 8.21381 17.2356 8.1433C17.2356 8.07279 17.1765 8.01562 17.1036 8.01562C17.0308 8.01562 16.9717 8.07279 16.9717 8.1433C16.9717 8.21381 17.0308 8.27098 17.1036 8.27098Z" fill="white"/>
<path d="M16.2764 7.03157C16.2764 6.95258 16.3438 6.8877 16.423 6.8877H17.3878C17.6869 6.8877 17.9216 6.96951 18.0711 7.11056C18.1796 7.21776 18.2383 7.35035 18.2383 7.51115V7.51961C18.2383 7.84686 18.0301 8.0133 17.8248 8.10075C18.1356 8.19103 18.3849 8.36311 18.3849 8.70728V8.71574C18.3849 9.14736 18.0095 9.40126 17.4377 9.40126H16.423C16.3438 9.40126 16.2764 9.33638 16.2764 9.25739V7.03439V7.03157ZM17.338 8.00766C17.6928 8.00766 17.9392 7.8525 17.9392 7.55911V7.55064C17.9392 7.30239 17.7339 7.14159 17.3614 7.14159H16.5667V8.00484H17.338V8.00766ZM17.4435 9.14454C17.8394 9.14454 18.0858 8.97528 18.0858 8.696V8.68753C18.0858 8.41389 17.8482 8.25591 17.3908 8.25591H16.5667V9.14172H17.4435V9.14454Z" fill="white"/>
<path d="M13.1417 24.9993C6.0448 24.9993 0.270508 19.4436 0.270508 12.6154C0.270508 5.78713 6.0448 0.231445 13.1417 0.231445C20.2386 0.231445 26.0129 5.78713 26.0129 12.6154C26.0129 19.4436 20.2386 24.9993 13.1417 24.9993ZM13.1417 1.36008C6.68997 1.36008 1.44355 6.40788 1.44355 12.6154C1.44355 18.8228 6.68997 23.8706 13.1417 23.8706C19.5934 23.8706 24.8398 18.8228 24.8398 12.6154C24.8398 6.40788 19.5905 1.36008 13.1417 1.36008Z" fill="white"/>
<path d="M16.876 18.9352H9.67065C9.26595 18.9352 8.9375 18.6192 8.9375 18.2298C8.9375 17.8404 9.26595 17.5244 9.67065 17.5244H16.876C17.2807 17.5244 17.6092 17.8404 17.6092 18.2298C17.6092 18.6192 17.2807 18.9352 16.876 18.9352Z" fill="white"/>
</svg>
