<svg width="64" height="81" viewBox="0 0 64 81" fill="none" xmlns="http://www.w3.org/2000/svg">
<path fill-rule="evenodd" clip-rule="evenodd" d="M25.8342 3.42617C26.4556 3.14468 26.8879 2.51908 26.8879 1.79253C26.8879 0.802541 26.0853 0 25.0953 0C24.1054 0 23.3028 0.802541 23.3028 1.79253C23.3028 2.78251 24.1054 3.58505 25.0953 3.58505C25.148 3.58505 25.2001 3.58278 25.2516 3.57834L29.7673 37.8872C29.0744 38.1576 28.4863 38.6375 28.0807 39.2489L12.9037 27.7871C13.0572 27.5228 13.1452 27.2156 13.1452 26.8879C13.1452 25.8979 12.3427 25.0953 11.3527 25.0953C10.3627 25.0953 9.56015 25.8979 9.56015 26.8879C9.56015 27.8778 10.3627 28.6804 11.3527 28.6804C11.7991 28.6804 12.2075 28.5172 12.5213 28.2471L27.7905 39.7785C27.5943 40.2217 27.4854 40.7122 27.4854 41.2281C27.4854 41.6268 27.5504 42.0103 27.6706 42.3686L3.25076 43.7705C2.92555 43.3164 2.39358 43.0206 1.79253 43.0206C0.802541 43.0206 0 43.8232 0 44.8131C0 45.8031 0.802541 46.6057 1.79253 46.6057C2.78251 46.6057 3.58505 45.8031 3.58505 44.8131C3.58505 44.6541 3.56435 44.5 3.52549 44.3532L27.9265 42.9524C28.0004 43.0869 28.0828 43.2162 28.1728 43.3395L9.02598 56.6815C8.70235 56.3625 8.25799 56.1656 7.76764 56.1656C6.77766 56.1656 5.97512 56.9681 5.97512 57.9581C5.97512 58.9481 6.77766 59.7506 7.76764 59.7506C8.75763 59.7506 9.56017 58.9481 9.56017 57.9581C9.56017 57.6737 9.49393 57.4047 9.37603 57.1658L28.5663 43.7936C28.8367 44.0575 29.1486 44.2791 29.4914 44.4476L17.0977 67.5561C16.9791 67.5314 16.8562 67.5184 16.7302 67.5184C15.7402 67.5184 14.9377 68.3209 14.9377 69.3109C14.9377 70.3009 15.7402 71.1034 16.7302 71.1034C17.7202 71.1034 18.5227 70.3009 18.5227 69.3109C18.5227 68.6603 18.1761 68.0907 17.6575 67.7765L30.0521 44.6664C30.2533 44.7259 30.4619 44.7682 30.6761 44.7917L34.9571 77.3167C34.4198 77.6262 34.058 78.2063 34.058 78.871C34.058 79.861 34.8606 80.6635 35.8506 80.6635C36.8406 80.6635 37.6431 79.861 37.6431 78.871C37.6431 77.881 36.8406 77.0784 35.8506 77.0784C35.7419 77.0784 35.6355 77.0881 35.5321 77.1067L31.2808 44.807C32.0699 44.7614 32.7905 44.4605 33.3614 43.9857L46.1596 53.651C46.0622 53.8719 46.0081 54.1163 46.0081 54.3732C46.0081 55.3632 46.8107 56.1657 47.8007 56.1657C48.7906 56.1657 49.5932 55.3632 49.5932 54.3732C49.5932 53.3832 48.7906 52.5807 47.8007 52.5807C47.2829 52.5807 46.8165 52.8002 46.4893 53.1512L33.7918 43.562C34.041 43.2717 34.2445 42.9411 34.3913 42.5813L46.7252 41.8732C46.9841 42.5445 47.6355 43.0208 48.3982 43.0208C49.3882 43.0208 50.1907 42.2182 50.1907 41.2283C50.1907 40.2383 49.3882 39.4357 48.3982 39.4357C47.4082 39.4357 46.6056 40.2383 46.6056 41.2283C46.6056 41.2461 46.6059 41.2638 46.6064 41.2815L34.5782 41.972C34.6288 41.732 34.6555 41.4832 34.6555 41.2281C34.6555 40.7076 34.5445 40.213 34.3451 39.7667L61.0622 21.1495C61.3623 21.376 61.7359 21.5103 62.1409 21.5103C63.1309 21.5103 63.9334 20.7078 63.9334 19.7178C63.9334 18.7278 63.1309 17.9253 62.1409 17.9253C61.1509 17.9253 60.3484 18.7278 60.3484 19.7178C60.3484 20.0847 60.4586 20.4259 60.6478 20.71L34.0547 39.2408C33.8641 38.9551 33.6335 38.6983 33.3709 38.4784L46.3284 14.3187C46.4188 14.3327 46.5114 14.34 46.6057 14.34C47.5956 14.34 48.3982 13.5374 48.3982 12.5475C48.3982 11.5575 47.5956 10.7549 46.6057 10.7549C45.6157 10.7549 44.8131 11.5575 44.8131 12.5475C44.8131 13.2293 45.1938 13.8222 45.7542 14.1252L32.8788 38.1318C32.3479 37.8211 31.7299 37.643 31.0704 37.643C30.8228 37.643 30.581 37.6681 30.3475 37.7159L25.8342 3.42617Z" fill="#465979"/>
</svg>
