<svg width="18" height="17" viewBox="0 0 18 17" fill="none" xmlns="http://www.w3.org/2000/svg">
<g clip-path="url(#clip0_3459_8162)">
<path d="M7.73733 0.779051V4.11784C7.73733 4.5491 7.39556 4.89689 6.97176 4.89689C6.54796 4.89689 6.20619 4.5491 6.20619 4.11784V0.779051C6.20619 0.34779 6.54796 0 6.97176 0C7.39556 0 7.73733 0.34779 7.73733 0.779051Z" fill="white"/>
<path d="M11.9125 0.779051V4.11784C11.9125 4.5491 11.5707 4.89689 11.1469 4.89689C10.7231 4.89689 10.3813 4.5491 10.3813 4.11784V0.779051C10.3813 0.34779 10.7231 0 11.1469 0C11.5707 0 11.9125 0.34779 11.9125 0.779051Z" fill="white"/>
<path d="M9.01823 16.9999C6.80354 16.9999 4.65722 16.1792 3.00304 14.6721C1.09367 12.9377 0 10.4476 0 7.84609C0 7.05777 0.100253 6.27872 0.291646 5.52285C0.401013 5.10551 0.820253 4.8551 1.22582 4.96639C1.63595 5.07768 1.88203 5.49967 1.77266 5.91702C1.61316 6.54304 1.53114 7.19225 1.53114 7.84609C1.53114 10.007 2.43797 12.0706 4.0238 13.5128C5.62785 14.9735 7.70582 15.6412 9.86582 15.3908C13.2243 15.0059 15.9722 12.2514 16.3959 8.84309C16.5235 7.83682 16.4597 6.83982 16.2091 5.88456C16.0997 5.46721 16.3458 5.04058 16.7514 4.92929C17.1615 4.818 17.5808 5.06841 17.6901 5.48112C17.9909 6.63578 18.0684 7.83218 17.918 9.03786C17.403 13.1511 14.0901 16.4759 10.0344 16.9397C9.69266 16.9768 9.35089 16.9999 9.01367 16.9999H9.01823Z" fill="white"/>
</g>
<defs>
<clipPath id="clip0_3459_8162">
<rect width="18" height="17" fill="white"/>
</clipPath>
</defs>
</svg>
