<svg width="238" height="59" viewBox="0 0 238 59" fill="none" xmlns="http://www.w3.org/2000/svg">
<path d="M17.47 58.5V13.03H11V6.47L23.95 0H30.5V58.5H17.47Z" fill="white"/>
<path d="M75.97 58.5V39H50V32.53L75.97 0H89V32.53H95.47V39H89V58.5H75.97ZM75.97 32.53V8.11L56.47 32.52H75.97V32.53Z" fill="white"/>
<path d="M108.5 25.9698V13.0298H121.53V25.9798H108.5V25.9698ZM108.5 58.4998V45.4698H121.53V58.4998H108.5Z" fill="white"/>
<path d="M147.5 0H160.53C164.07 0 167.11 1.29 169.66 3.86C172.21 6.43 173.48 9.49 173.48 13.03V45.47C173.48 49.01 172.21 52.06 169.66 54.64C167.11 57.21 164.07 58.5 160.53 58.5H147.5C143.96 58.5 140.91 57.23 138.33 54.68C135.76 52.13 134.47 49.06 134.47 45.48V13.03C134.47 9.44 135.76 6.37 138.33 3.83C140.9 1.28 143.96 0.01 147.5 0.01V0ZM160.45 11.86C159.51 8.27 157.36 6.48 153.98 6.48C152.21 6.48 150.69 7.12 149.42 8.39C148.15 9.66 147.51 11.21 147.51 13.03V35.1L160.46 11.86H160.45ZM147.66 46.57C147.97 48.34 148.66 49.69 149.73 50.63C150.79 51.57 152.21 52.03 153.98 52.03C155.75 52.03 157.35 51.38 158.62 50.08C159.89 48.78 160.53 47.25 160.53 45.48V23.4L147.66 46.57Z" fill="white"/>
<path d="M199.52 0H212.55C216.09 0 219.13 1.29 221.68 3.86C224.23 6.43 225.5 9.49 225.5 13.03V45.47C225.5 49.01 224.23 52.06 221.68 54.64C219.13 57.21 216.09 58.5 212.55 58.5H199.52C195.98 58.5 192.93 57.23 190.35 54.68C187.78 52.13 186.49 49.06 186.49 45.48V13.03C186.49 9.44 187.78 6.37 190.35 3.83C192.92 1.28 195.98 0.01 199.52 0.01V0ZM212.47 11.86C211.53 8.27 209.38 6.48 206 6.48C204.23 6.48 202.71 7.12 201.44 8.39C200.17 9.66 199.53 11.21 199.53 13.03V35.1L212.48 11.86H212.47ZM199.68 46.57C199.99 48.34 200.68 49.69 201.75 50.63C202.81 51.57 204.23 52.03 206 52.03C207.77 52.03 209.37 51.38 210.64 50.08C211.91 48.78 212.55 47.25 212.55 45.48V23.4L199.68 46.57Z" fill="white"/>
</svg>
