<svg width="238" height="59" viewBox="0 0 238 59" fill="none" xmlns="http://www.w3.org/2000/svg">
<path d="M17.47 58.5V13.03H11V6.47L23.95 0H30.5V58.5H17.47Z" fill="white"/>
<path d="M82.53 32.53C82.01 36.85 79.83 39 75.98 39H69.51C65.97 39 62.92 37.73 60.34 35.18C57.77 32.63 56.48 29.56 56.48 25.98V13.03C56.48 9.49 57.77 6.44 60.34 3.86C62.91 1.29 65.97 0 69.51 0H82.54C86.08 0 89.12 1.29 91.67 3.86C94.22 6.43 95.49 9.49 95.49 13.03V35.73C95.49 41.97 93.27 47.33 88.82 51.8C84.37 56.27 79.03 58.51 72.79 58.51H63.04V52.04H69.51C73.1 52.04 76.17 50.75 78.71 48.18C81.26 45.61 82.53 42.55 82.53 39.01V32.54V32.53ZM69.5 13.03V25.98C69.5 27.75 70.14 29.28 71.41 30.58C72.68 31.88 74.2 32.53 75.97 32.53C77.74 32.53 79.34 31.88 80.61 30.58C81.88 29.28 82.52 27.75 82.52 25.98V13.03C82.52 11.21 81.88 9.66 80.61 8.39C79.34 7.12 77.79 6.48 75.97 6.48C74.15 6.48 72.68 7.13 71.41 8.43C70.14 9.73 69.5 11.26 69.5 13.03Z" fill="white"/>
<path d="M108.5 25.9698V13.0298H121.53V25.9798H108.5V25.9698ZM108.5 58.4998V45.4698H121.53V58.4998H108.5Z" fill="white"/>
<path d="M134.47 0H173.47V6.47L153.97 19.5H160.52C164.26 19.5 167.36 20.93 169.8 23.79C172.24 26.65 173.47 29.56 173.47 32.53V45.48C173.47 49.07 172.2 52.14 169.65 54.68C167.1 57.23 164.06 58.5 160.52 58.5H147.49C139.85 58.5 135.5 54.16 134.46 45.47H141.01C141.32 49.84 143.48 52.02 147.48 52.02H153.95C155.77 52.02 157.32 51.38 158.59 50.11C159.86 48.84 160.5 47.29 160.5 45.47V32.52C160.5 31.48 159.95 30.13 158.86 28.46C157.77 26.8 156.13 25.96 153.95 25.96H141V19.49L160.5 6.46H134.45V0H134.47Z" fill="white"/>
<path d="M199.52 0H212.55C216.09 0 219.13 1.29 221.68 3.86C224.23 6.43 225.5 9.49 225.5 13.03V45.47C225.5 49.01 224.23 52.06 221.68 54.64C219.13 57.21 216.09 58.5 212.55 58.5H199.52C195.98 58.5 192.93 57.23 190.35 54.68C187.78 52.13 186.49 49.06 186.49 45.48V13.03C186.49 9.44 187.78 6.37 190.35 3.83C192.92 1.28 195.98 0.01 199.52 0.01V0ZM212.47 11.86C211.53 8.27 209.38 6.48 206 6.48C204.23 6.48 202.71 7.12 201.44 8.39C200.17 9.67 199.53 11.21 199.53 13.03V35.1L212.48 11.86H212.47ZM199.68 46.57C199.99 48.34 200.68 49.69 201.75 50.63C202.81 51.57 204.23 52.03 206 52.03C207.77 52.03 209.37 51.38 210.64 50.08C211.91 48.78 212.55 47.25 212.55 45.48V23.4L199.68 46.57Z" fill="white"/>
</svg>
