<svg width="238" height="59" viewBox="0 0 238 59" fill="none" xmlns="http://www.w3.org/2000/svg">
<path d="M21.03 0H34.06C37.6 0 40.64 1.29 43.19 3.86C45.74 6.43 47.01 9.49 47.01 13.03V45.47C47.01 49.01 45.74 52.06 43.19 54.64C40.64 57.21 37.6 58.5 34.06 58.5H21.03C17.49 58.5 14.44 57.23 11.86 54.68C9.29 52.13 8 49.06 8 45.48V13.03C8 9.44 9.29 6.37 11.86 3.82C14.44 1.27 17.49 0 21.03 0ZM33.98 11.86C33.04 8.27 30.89 6.48 27.51 6.48C25.74 6.48 24.22 7.12 22.95 8.39C21.68 9.66 21.04 11.21 21.04 13.03V35.1L33.97 11.86H33.98ZM21.18 46.57C21.49 48.34 22.18 49.69 23.25 50.63C24.31 51.57 25.73 52.03 27.5 52.03C29.27 52.03 30.87 51.38 32.14 50.08C33.41 48.78 34.05 47.25 34.05 45.48V23.4L21.18 46.57Z" fill="white"/>
<path d="M60.03 0H99.03V13.03L95.83 19.5L92.55 25.97C88.23 35.12 86.08 41.62 86.08 45.47V58.5H73.05V45.47C73.05 41.15 75.21 34.65 79.52 25.97L86.07 13.02V6.47H60.02V0H60.03Z" fill="white"/>
<path d="M112.05 25.9698V13.0298H125.08V25.9798H112.05V25.9698ZM112.05 58.4998V45.4698H125.08V58.4998H112.05Z" fill="white"/>
<path d="M151.05 0H164.08C167.62 0 170.66 1.29 173.21 3.86C175.76 6.43 177.03 9.49 177.03 13.03V45.47C177.03 49.01 175.76 52.06 173.21 54.64C170.66 57.21 167.62 58.5 164.08 58.5H151.05C147.51 58.5 144.46 57.23 141.88 54.68C139.31 52.13 138.02 49.06 138.02 45.48V13.03C138.02 9.44 139.31 6.37 141.88 3.83C144.45 1.28 147.51 0.01 151.05 0.01V0ZM164 11.86C163.06 8.27 160.91 6.48 157.53 6.48C155.76 6.48 154.24 7.12 152.97 8.39C151.7 9.66 151.06 11.21 151.06 13.03V35.1L164.01 11.86H164ZM151.21 46.57C151.52 48.34 152.21 49.69 153.28 50.63C154.34 51.57 155.76 52.03 157.53 52.03C159.3 52.03 160.9 51.38 162.17 50.08C163.44 48.78 164.08 47.25 164.08 45.48V23.4L151.21 46.57Z" fill="white"/>
<path d="M203.08 0H216.11C219.65 0 222.69 1.29 225.24 3.86C227.79 6.43 229.06 9.49 229.06 13.03V45.47C229.06 49.01 227.79 52.06 225.24 54.64C222.69 57.21 219.65 58.5 216.11 58.5H203.08C199.54 58.5 196.49 57.23 193.91 54.68C191.34 52.13 190.05 49.06 190.05 45.48V13.03C190.05 9.44 191.34 6.37 193.91 3.83C196.48 1.28 199.54 0.01 203.08 0.01V0ZM216.03 11.86C215.09 8.27 212.94 6.48 209.56 6.48C207.79 6.48 206.27 7.12 205 8.39C203.73 9.66 203.09 11.21 203.09 13.03V35.1L216.04 11.86H216.03ZM203.24 46.57C203.55 48.34 204.24 49.69 205.31 50.63C206.37 51.57 207.79 52.03 209.56 52.03C211.33 52.03 212.93 51.38 214.2 50.08C215.47 48.78 216.11 47.25 216.11 45.48V23.4L203.24 46.57Z" fill="white"/>
</svg>
