<svg width="238" height="59" viewBox="0 0 238 59" fill="none" xmlns="http://www.w3.org/2000/svg">
<path d="M21.03 0H34.06C37.6 0 40.64 1.29 43.19 3.86C45.74 6.43 47.01 9.49 47.01 13.03V45.47C47.01 49.01 45.74 52.06 43.19 54.64C40.64 57.21 37.6 58.5 34.06 58.5H21.03C17.49 58.5 14.44 57.23 11.86 54.68C9.29 52.13 8 49.06 8 45.48V13.03C8 9.44 9.29 6.37 11.86 3.82C14.44 1.27 17.49 0 21.03 0ZM33.98 11.86C33.04 8.27 30.89 6.48 27.51 6.48C25.74 6.48 24.22 7.12 22.95 8.39C21.68 9.66 21.04 11.21 21.04 13.03V35.1L33.97 11.86H33.98ZM21.18 46.57C21.49 48.34 22.18 49.69 23.25 50.63C24.31 51.57 25.73 52.03 27.5 52.03C29.27 52.03 30.87 51.38 32.14 50.08C33.41 48.78 34.05 47.25 34.05 45.48V23.4L21.18 46.57Z" fill="white"/>
<path d="M86.08 32.53C85.56 36.85 83.38 39 79.53 39H73.06C69.52 39 66.47 37.73 63.89 35.18C61.32 32.63 60.03 29.56 60.03 25.98V13.03C60.03 9.49 61.32 6.44 63.89 3.86C66.46 1.29 69.52 0 73.06 0H86.09C89.63 0 92.67 1.29 95.22 3.86C97.77 6.43 99.04 9.49 99.04 13.03V35.73C99.04 41.97 96.82 47.33 92.37 51.8C87.92 56.27 82.58 58.51 76.34 58.51H66.59V52.04H73.06C76.65 52.04 79.72 50.75 82.26 48.18C84.81 45.61 86.08 42.55 86.08 39.01V32.54V32.53ZM73.05 13.03V25.98C73.05 27.75 73.69 29.28 74.96 30.58C76.23 31.88 77.75 32.53 79.52 32.53C81.29 32.53 82.89 31.88 84.16 30.58C85.43 29.28 86.07 27.75 86.07 25.98V13.03C86.07 11.21 85.43 9.66 84.16 8.39C82.89 7.12 81.34 6.48 79.52 6.48C77.7 6.48 76.23 7.13 74.96 8.43C73.69 9.73 73.05 11.26 73.05 13.03Z" fill="white"/>
<path d="M112.05 25.9698V13.0298H125.08V25.9798H112.05V25.9698ZM112.05 58.4998V45.4698H125.08V58.4998H112.05Z" fill="white"/>
<path d="M151.05 0H164.08C167.62 0 170.66 1.29 173.21 3.86C175.76 6.43 177.03 9.49 177.03 13.03V45.47C177.03 49.01 175.76 52.06 173.21 54.64C170.66 57.21 167.62 58.5 164.08 58.5H151.05C147.51 58.5 144.46 57.23 141.88 54.68C139.31 52.13 138.02 49.06 138.02 45.48V13.03C138.02 9.44 139.31 6.37 141.88 3.83C144.45 1.28 147.51 0.01 151.05 0.01V0ZM164 11.86C163.06 8.27 160.91 6.48 157.53 6.48C155.76 6.48 154.24 7.12 152.97 8.39C151.7 9.66 151.06 11.21 151.06 13.03V35.1L164.01 11.86H164ZM151.21 46.57C151.52 48.34 152.21 49.69 153.28 50.63C154.34 51.57 155.76 52.03 157.53 52.03C159.3 52.03 160.9 51.38 162.17 50.08C163.44 48.78 164.08 47.25 164.08 45.48V23.4L151.21 46.57Z" fill="white"/>
<path d="M190.05 0H229.05V6.47H203.08V19.5H216.11C219.65 19.5 222.69 20.77 225.24 23.32C227.79 25.87 229.06 28.94 229.06 32.52V45.47C229.06 49.06 227.79 52.13 225.24 54.67C222.69 57.21 219.65 58.49 216.11 58.49H203.08C195.44 58.49 191.09 54.15 190.05 45.46H196.6C196.91 49.83 199.07 52.01 203.07 52.01H209.54C211.36 52.01 212.91 51.37 214.18 50.1C215.45 48.83 216.09 47.28 216.09 45.46V32.51C216.09 30.69 215.45 29.14 214.18 27.87C212.91 26.6 211.36 25.96 209.54 25.96H190.04V0H190.05Z" fill="white"/>
</svg>
