<svg width="238" height="59" viewBox="0 0 238 59" fill="none" xmlns="http://www.w3.org/2000/svg">
<path d="M17.47 58.5V13.03H11V6.47L23.95 0H30.5V58.5H17.47Z" fill="white"/>
<path d="M63.03 13.03H56.48C57.52 4.35 61.86 0 69.51 0H82.54C86.08 0 89.12 1.29 91.67 3.86C94.22 6.43 95.49 9.49 95.49 13.03V16.23C95.49 20.75 91.3 26.6 82.93 33.78L82.07 34.48C73.7 41.66 69.51 47.3 69.51 51.41V52.03H95.48V58.5H56.47V52.03C56.47 47.51 60.68 41.66 69.11 34.48L69.97 33.78C78.34 26.6 82.53 20.75 82.53 16.23V13.03C82.53 11.21 81.88 9.66 80.58 8.39C79.28 7.12 77.75 6.48 75.98 6.48H69.51C65.51 6.48 63.35 8.66 63.04 13.03H63.03Z" fill="white"/>
<path d="M108.5 25.9698V13.0298H121.53V25.9798H108.5V25.9698ZM108.5 58.4998V45.4698H121.53V58.4998H108.5Z" fill="white"/>
<path d="M147.5 58.5V13.03H141.03V6.47L153.98 0H160.53V58.5H147.5Z" fill="white"/>
<path d="M186.5 0H225.5V6.47H199.53V19.5H212.56C216.1 19.5 219.14 20.77 221.69 23.32C224.24 25.87 225.51 28.94 225.51 32.52V45.47C225.51 49.06 224.24 52.13 221.69 54.67C219.14 57.22 216.1 58.49 212.56 58.49H199.53C191.89 58.49 187.54 54.15 186.5 45.46H193.05C193.36 49.83 195.52 52.01 199.52 52.01H205.99C207.81 52.01 209.36 51.37 210.63 50.1C211.9 48.83 212.54 47.28 212.54 45.46V32.51C212.54 30.69 211.9 29.14 210.63 27.87C209.36 26.6 207.81 25.96 205.99 25.96H186.49V0H186.5Z" fill="white"/>
</svg>
