<svg width="238" height="59" viewBox="0 0 238 59" fill="none" xmlns="http://www.w3.org/2000/svg">
<path d="M14.55 13.03H8C9.04 4.34 13.38 0 21.03 0H34.06C37.6 0 40.64 1.29 43.19 3.86C45.74 6.43 47.01 9.49 47.01 13.03V16.23C47.01 20.75 42.82 26.6 34.45 33.78L33.59 34.48C25.22 41.66 21.03 47.3 21.03 51.41V52.03H47V58.5H8V52.03C8 47.51 12.21 41.66 20.64 34.48L21.5 33.78C29.87 26.6 34.06 20.75 34.06 16.23V13.03C34.06 11.21 33.41 9.66 32.11 8.39C30.81 7.12 29.28 6.48 27.51 6.48H21.04C17.04 6.48 14.88 8.66 14.57 13.03H14.55Z" fill="white"/>
<path d="M66.58 13.03H60.03C61.07 4.35 65.41 0 73.06 0H86.09C89.63 0 92.67 1.29 95.22 3.86C97.77 6.43 99.04 9.49 99.04 13.03V16.23C99.04 20.75 94.85 26.6 86.48 33.78L85.62 34.48C77.25 41.66 73.06 47.3 73.06 51.41V52.03H99.03V58.5H60.03V52.03C60.03 47.51 64.24 41.66 72.67 34.48L73.53 33.78C81.9 26.6 86.09 20.75 86.09 16.23V13.03C86.09 11.21 85.44 9.66 84.14 8.39C82.84 7.12 81.31 6.48 79.54 6.48H73.07C69.07 6.48 66.91 8.66 66.6 13.03H66.58Z" fill="white"/>
<path d="M112.05 25.9698V13.0298H125.08V25.9798H112.05V25.9698ZM112.05 58.4998V45.4698H125.08V58.4998H112.05Z" fill="white"/>
<path d="M151.05 0H164.08C167.62 0 170.66 1.29 173.21 3.86C175.76 6.43 177.03 9.49 177.03 13.03V45.47C177.03 49.01 175.76 52.06 173.21 54.64C170.66 57.21 167.62 58.5 164.08 58.5H151.05C147.51 58.5 144.46 57.23 141.88 54.68C139.31 52.13 138.02 49.06 138.02 45.48V13.03C138.02 9.44 139.31 6.37 141.88 3.83C144.45 1.28 147.51 0.01 151.05 0.01V0ZM164 11.86C163.06 8.27 160.91 6.48 157.53 6.48C155.76 6.48 154.24 7.12 152.97 8.39C151.7 9.66 151.06 11.21 151.06 13.03V35.1L164.01 11.86H164ZM151.21 46.57C151.52 48.34 152.21 49.69 153.28 50.63C154.34 51.57 155.76 52.03 157.53 52.03C159.3 52.03 160.9 51.38 162.17 50.08C163.44 48.78 164.08 47.25 164.08 45.48V23.4L151.21 46.57Z" fill="white"/>
<path d="M203.08 0H216.11C219.65 0 222.69 1.29 225.24 3.86C227.79 6.43 229.06 9.49 229.06 13.03V45.47C229.06 49.01 227.79 52.06 225.24 54.64C222.69 57.21 219.65 58.5 216.11 58.5H203.08C199.54 58.5 196.49 57.23 193.91 54.68C191.34 52.13 190.05 49.06 190.05 45.48V13.03C190.05 9.44 191.34 6.37 193.91 3.83C196.48 1.28 199.54 0.01 203.08 0.01V0ZM216.03 11.86C215.09 8.27 212.94 6.48 209.56 6.48C207.79 6.48 206.27 7.12 205 8.39C203.73 9.66 203.09 11.21 203.09 13.03V35.1L216.04 11.86H216.03ZM203.24 46.57C203.55 48.34 204.24 49.69 205.31 50.63C206.37 51.57 207.79 52.03 209.56 52.03C211.33 52.03 212.93 51.38 214.2 50.08C215.47 48.78 216.11 47.25 216.11 45.48V23.4L203.24 46.57Z" fill="white"/>
</svg>
